<svg id="visual" viewBox="0 0 900 600" width="900" height="600" xmlns="http://www.w3.org/2000/svg" xmlns:xlink="http://www.w3.org/1999/xlink" version="1.1"><rect x="0" y="0" width="900" height="600" fill="#001220"></rect><defs><linearGradient id="grad1_0" x1="33.3%" y1="0%" x2="100%" y2="100%"><stop offset="20%" stop-color="#001220" stop-opacity="1"></stop><stop offset="80%" stop-color="#001220" stop-opacity="1"></stop></linearGradient></defs><defs><linearGradient id="grad2_0" x1="0%" y1="0%" x2="66.7%" y2="100%"><stop offset="20%" stop-color="#001220" stop-opacity="1"></stop><stop offset="80%" stop-color="#001220" stop-opacity="1"></stop></linearGradient></defs><g transform="translate(900, 0)"><path d="M0 486.7C-51.5 438.8 -103 390.9 -148.9 359.4C-194.7 327.9 -235 312.9 -289.9 289.9C-344.8 266.9 -414.4 235.9 -449.7 186.3C-484.9 136.6 -485.8 68.3 -486.7 0L0 0Z" fill="#FBAE3C"></path></g><g transform="translate(0, 600)"><path d="M0 -486.7C68.7 -480.1 137.4 -473.4 180.6 -436.1C223.8 -398.7 241.5 -330.7 288.5 -288.5C335.5 -246.3 411.8 -230 449.7 -186.3C487.6 -142.5 487.2 -71.3 486.7 0L0 0Z" fill="#FBAE3C"></path></g></svg>