<svg id="visual" viewBox="0 0 900 600" width="900" height="600" xmlns="http://www.w3.org/2000/svg" xmlns:xlink="http://www.w3.org/1999/xlink" version="1.1"><g stroke-width="1" stroke-linejoin="bevel"><path d="M511 299L511 411L573 318Z" fill="#15384f" stroke="#15384f"></path><path d="M511 411L618 367L573 318Z" fill="#00101c" stroke="#00101c"></path><path d="M511 411L612 470L618 367Z" fill="#112e42" stroke="#112e42"></path><path d="M517 482L612 470L511 411Z" fill="#0c2435" stroke="#0c2435"></path><path d="M607 165L476 219L511 299Z" fill="#205a7a" stroke="#205a7a"></path><path d="M511 299L387 296L511 411Z" fill="#205a7a" stroke="#205a7a"></path><path d="M511 411L430 519L517 482Z" fill="#1d4e6b" stroke="#1d4e6b"></path><path d="M476 219L387 296L511 299Z" fill="#205a7a" stroke="#205a7a"></path><path d="M387 296L382 426L511 411Z" fill="#205a7a" stroke="#205a7a"></path><path d="M382 426L430 519L511 411Z" fill="#19435d" stroke="#19435d"></path><path d="M630 600L676 519L612 470Z" fill="#081a28" stroke="#081a28"></path><path d="M722 260L607 165L573 318Z" fill="#00101c" stroke="#00101c"></path><path d="M573 318L607 165L511 299Z" fill="#0c2435" stroke="#0c2435"></path><path d="M529 124L417 175L476 219Z" fill="#0c2435" stroke="#0c2435"></path><path d="M476 219L417 175L387 296Z" fill="#081a28" stroke="#081a28"></path><path d="M771 389L722 260L618 367Z" fill="#19435d" stroke="#19435d"></path><path d="M618 367L722 260L573 318Z" fill="#1d4e6b" stroke="#1d4e6b"></path><path d="M630 600L612 470L517 482Z" fill="#246688" stroke="#246688"></path><path d="M612 470L738 435L618 367Z" fill="#0c2435" stroke="#0c2435"></path><path d="M676 519L738 435L612 470Z" fill="#1d4e6b" stroke="#1d4e6b"></path><path d="M607 165L529 124L476 219Z" fill="#0c2435" stroke="#0c2435"></path><path d="M387 296L296 405L382 426Z" fill="#246688" stroke="#246688"></path><path d="M382 426L300 460L430 519Z" fill="#112e42" stroke="#112e42"></path><path d="M294 310L296 405L387 296Z" fill="#112e42" stroke="#112e42"></path><path d="M330 183L294 310L387 296Z" fill="#1d4e6b" stroke="#1d4e6b"></path><path d="M723 165L615 126L607 165Z" fill="#1d4e6b" stroke="#1d4e6b"></path><path d="M607 165L615 126L529 124Z" fill="#00101c" stroke="#00101c"></path><path d="M738 435L771 389L618 367Z" fill="#297ea6" stroke="#297ea6"></path><path d="M391 600L503 600L430 519Z" fill="#277297" stroke="#277297"></path><path d="M430 519L503 600L517 482Z" fill="#1d4e6b" stroke="#1d4e6b"></path><path d="M296 405L300 460L382 426Z" fill="#0c2435" stroke="#0c2435"></path><path d="M771 389L787 323L722 260Z" fill="#277297" stroke="#277297"></path><path d="M722 260L723 165L607 165Z" fill="#00101c" stroke="#00101c"></path><path d="M416 82L330 183L417 175Z" fill="#112e42" stroke="#112e42"></path><path d="M417 175L330 183L387 296Z" fill="#19435d" stroke="#19435d"></path><path d="M503 600L630 600L517 482Z" fill="#19435d" stroke="#19435d"></path><path d="M676 519L814 482L738 435Z" fill="#00101c" stroke="#00101c"></path><path d="M738 435L814 482L771 389Z" fill="#205a7a" stroke="#205a7a"></path><path d="M774 203L723 165L722 260Z" fill="#19435d" stroke="#19435d"></path><path d="M300 460L391 600L430 519Z" fill="#277297" stroke="#277297"></path><path d="M787 323L774 203L722 260Z" fill="#297ea6" stroke="#297ea6"></path><path d="M529 124L416 82L417 175Z" fill="#297ea6" stroke="#297ea6"></path><path d="M519 0L416 82L529 124Z" fill="#19435d" stroke="#19435d"></path><path d="M630 600L708 600L676 519Z" fill="#205a7a" stroke="#205a7a"></path><path d="M296 405L225 407L300 460Z" fill="#1d4e6b" stroke="#1d4e6b"></path><path d="M300 460L289 600L391 600Z" fill="#15384f" stroke="#15384f"></path><path d="M294 310L225 407L296 405Z" fill="#205a7a" stroke="#205a7a"></path><path d="M187 301L225 407L294 310Z" fill="#19435d" stroke="#19435d"></path><path d="M769 600L814 482L676 519Z" fill="#081a28" stroke="#081a28"></path><path d="M771 389L900 360L787 323Z" fill="#081a28" stroke="#081a28"></path><path d="M787 323L900 275L774 203Z" fill="#1d4e6b" stroke="#1d4e6b"></path><path d="M416 82L298 134L330 183Z" fill="#277297" stroke="#277297"></path><path d="M203 185L187 301L294 310Z" fill="#0c2435" stroke="#0c2435"></path><path d="M723 165L663 66L615 126Z" fill="#19435d" stroke="#19435d"></path><path d="M574 0L519 0L529 124Z" fill="#205a7a" stroke="#205a7a"></path><path d="M704 0L663 66L803 60Z" fill="#081a28" stroke="#081a28"></path><path d="M192 600L289 600L300 460Z" fill="#15384f" stroke="#15384f"></path><path d="M708 600L769 600L676 519Z" fill="#00101c" stroke="#00101c"></path><path d="M203 185L294 310L330 183Z" fill="#081a28" stroke="#081a28"></path><path d="M225 407L163 479L300 460Z" fill="#15384f" stroke="#15384f"></path><path d="M574 0L529 124L615 126Z" fill="#0c2435" stroke="#0c2435"></path><path d="M416 82L302 0L298 134Z" fill="#1d4e6b" stroke="#1d4e6b"></path><path d="M663 66L574 0L615 126Z" fill="#0c2435" stroke="#0c2435"></path><path d="M298 134L203 185L330 183Z" fill="#19435d" stroke="#19435d"></path><path d="M194 97L203 185L298 134Z" fill="#1d4e6b" stroke="#1d4e6b"></path><path d="M900 511L900 360L814 482Z" fill="#246688" stroke="#246688"></path><path d="M814 482L900 360L771 389Z" fill="#19435d" stroke="#19435d"></path><path d="M519 0L392 0L416 82Z" fill="#0c2435" stroke="#0c2435"></path><path d="M900 360L900 275L787 323Z" fill="#112e42" stroke="#112e42"></path><path d="M803 60L663 66L723 165Z" fill="#246688" stroke="#246688"></path><path d="M129 485L163 479L108 413Z" fill="#00101c" stroke="#00101c"></path><path d="M900 275L900 229L774 203Z" fill="#277297" stroke="#277297"></path><path d="M663 66L704 0L574 0Z" fill="#00101c" stroke="#00101c"></path><path d="M803 60L723 165L774 203Z" fill="#112e42" stroke="#112e42"></path><path d="M900 125L803 60L774 203Z" fill="#112e42" stroke="#112e42"></path><path d="M900 600L900 511L814 482Z" fill="#297ea6" stroke="#297ea6"></path><path d="M163 479L192 600L300 460Z" fill="#00101c" stroke="#00101c"></path><path d="M203 185L120 269L187 301Z" fill="#246688" stroke="#246688"></path><path d="M108 413L163 479L225 407Z" fill="#112e42" stroke="#112e42"></path><path d="M108 413L225 407L187 301Z" fill="#19435d" stroke="#19435d"></path><path d="M163 479L129 485L192 600Z" fill="#246688" stroke="#246688"></path><path d="M392 0L302 0L416 82Z" fill="#0c2435" stroke="#0c2435"></path><path d="M203 185L110 213L120 269Z" fill="#0c2435" stroke="#0c2435"></path><path d="M302 0L194 97L298 134Z" fill="#081a28" stroke="#081a28"></path><path d="M120 269L108 413L187 301Z" fill="#205a7a" stroke="#205a7a"></path><path d="M900 229L900 125L774 203Z" fill="#112e42" stroke="#112e42"></path><path d="M194 97L110 213L203 185Z" fill="#0c2435" stroke="#0c2435"></path><path d="M120 269L0 375L108 413Z" fill="#1d4e6b" stroke="#1d4e6b"></path><path d="M769 600L900 600L814 482Z" fill="#15384f" stroke="#15384f"></path><path d="M900 0L802 0L803 60Z" fill="#1d4e6b" stroke="#1d4e6b"></path><path d="M803 60L802 0L704 0Z" fill="#112e42" stroke="#112e42"></path><path d="M302 0L180 0L194 97Z" fill="#277297" stroke="#277297"></path><path d="M194 97L64 133L110 213Z" fill="#00101c" stroke="#00101c"></path><path d="M0 536L129 485L108 413Z" fill="#0c2435" stroke="#0c2435"></path><path d="M0 536L87 600L129 485Z" fill="#15384f" stroke="#15384f"></path><path d="M129 485L87 600L192 600Z" fill="#00101c" stroke="#00101c"></path><path d="M87 0L64 133L194 97Z" fill="#205a7a" stroke="#205a7a"></path><path d="M0 297L0 375L120 269Z" fill="#00101c" stroke="#00101c"></path><path d="M900 125L900 0L803 60Z" fill="#246688" stroke="#246688"></path><path d="M0 297L120 269L110 213Z" fill="#081a28" stroke="#081a28"></path><path d="M0 161L0 297L110 213Z" fill="#19435d" stroke="#19435d"></path><path d="M0 375L0 536L108 413Z" fill="#297ea6" stroke="#297ea6"></path><path d="M0 106L0 161L64 133Z" fill="#1d4e6b" stroke="#1d4e6b"></path><path d="M64 133L0 161L110 213Z" fill="#15384f" stroke="#15384f"></path><path d="M180 0L87 0L194 97Z" fill="#297ea6" stroke="#297ea6"></path><path d="M0 536L0 600L87 600Z" fill="#19435d" stroke="#19435d"></path><path d="M87 0L0 106L64 133Z" fill="#0c2435" stroke="#0c2435"></path><path d="M87 0L0 0L0 106Z" fill="#1d4e6b" stroke="#1d4e6b"></path></g></svg>