<svg id="visual" viewBox="0 0 900 600" width="900" height="600" xmlns="http://www.w3.org/2000/svg" xmlns:xlink="http://www.w3.org/1999/xlink" version="1.1"><rect x="0" y="0" width="900" height="600" fill="#002233"></rect><path d="M0 508L21.5 489C43 470 86 432 128.8 421.5C171.7 411 214.3 428 257.2 426C300 424 343 403 385.8 396.3C428.7 389.7 471.3 397.3 514.2 404.7C557 412 600 419 642.8 421.2C685.7 423.3 728.3 420.7 771.2 430.3C814 440 857 462 878.5 473L900 484L900 601L878.5 601C857 601 814 601 771.2 601C728.3 601 685.7 601 642.8 601C600 601 557 601 514.2 601C471.3 601 428.7 601 385.8 601C343 601 300 601 257.2 601C214.3 601 171.7 601 128.8 601C86 601 43 601 21.5 601L0 601Z" fill="#0066FF" stroke-linecap="round" stroke-linejoin="miter"></path></svg>